<?xml version="1.0" encoding="utf-8"?>
<!-- Generator: Adobe Illustrator 24.3.0, SVG Export Plug-In . SVG Version: 6.00 Build 0)  -->
<svg version="1.1" id="Слой_1" xmlns="http://www.w3.org/2000/svg" xmlns:xlink="http://www.w3.org/1999/xlink" x="0px" y="0px"
	 viewBox="0 0 40 40" style="enable-background:new 0 0 40 40;" xml:space="preserve">
<style type="text/css">
	.st0{fill:none;stroke:#DADADA;stroke-width:2;stroke-miterlimit:10;}
	.st1{fill:#FFFFFF;stroke:#DADADA;stroke-width:2;stroke-miterlimit:10;}
</style>
<path class="st0" d="M27,36.2H6.9c-2,0-3.5-1.6-3.5-3.5V9.1h27.1v23.6C30.5,34.6,28.9,36.2,27,36.2z"/>
<circle class="st1" cx="31.3" cy="24.8" r="7.7"/>
<path class="st1" d="M31.3,21"/>
<line class="st1" x1="27.5" y1="24.8" x2="35.4" y2="24.8"/>
<path class="st1" d="M31.3,21"/>
<path class="st1" d="M31.4,29.2"/>
<path class="st1" d="M35.4,11"/>
<line class="st1" x1="31.4" y1="28.7" x2="31.4" y2="20.8"/>
<path class="st0" d="M12.6,12.3"/>
<path class="st0" d="M11,12.3V3.6c0-0.6,0.5-1,1-1h9.7c0.6,0,1,0.5,1,1v8.6"/>
<path class="st0" d="M-4.1-4.6"/>
</svg>
