<?xml version="1.0" encoding="utf-8"?>
<!-- Generator: Adobe Illustrator 24.3.0, SVG Export Plug-In . SVG Version: 6.00 Build 0)  -->
<svg version="1.1" id="Слой_1" xmlns="http://www.w3.org/2000/svg" xmlns:xlink="http://www.w3.org/1999/xlink" x="0px" y="0px"
	 viewBox="0 0 854.11 390.99" style="enable-background:new 0 0 854.11 390.99;" xml:space="preserve">
<style type="text/css">
	.st0{fill:#E71D73;}
	.st1{fill:#3AAA35;}
	.st2{fill:#FCEA10;}
	.st3{fill:#E30613;}
	.st4{fill:#36A9E1;}
</style>
<ellipse class="st0" cx="284.94" cy="319.6" rx="71.57" ry="71.39"/>
<ellipse class="st1" cx="464.87" cy="158.78" rx="31.37" ry="31.29"/>
<ellipse class="st2" cx="91.61" cy="128.76" rx="49.14" ry="49.02"/>
<ellipse class="st3" cx="787.43" cy="212.62" rx="57.14" ry="57"/>
<g>
</g>
<g>
	<path d="M151.03,128.04c0,0.75-0.21,1.51-0.64,2.26s-0.98,1.46-1.66,2.1c-0.62,0.6-1.38,1.18-2.27,1.75
		c-0.89,0.57-1.86,1.07-2.91,1.5s-2.16,0.77-3.32,1.03c-1.16,0.26-2.34,0.39-3.54,0.39c-1.38,0-2.59-0.14-3.63-0.41
		c-1.04-0.27-1.93-0.56-2.66-0.88c-0.73-0.31-1.31-0.6-1.74-0.88c-0.43-0.27-0.72-0.41-0.88-0.41c-0.34,0-0.56,0.09-0.66,0.27
		c-0.1,0.18-0.17,0.34-0.2,0.47c-0.08,0.62-0.15,1.32-0.21,2.08c-0.07,0.77-0.21,1.58-0.43,2.46c-0.22,0.87-0.55,1.81-1,2.81
		c-0.44,1-1.09,2.05-1.95,3.14c-0.6,0.81-1.35,1.61-2.25,2.42c-0.9,0.81-1.88,1.59-2.95,2.36c-1.07,0.77-2.2,1.49-3.4,2.16
		c-1.2,0.68-2.4,1.26-3.61,1.75c-1.21,0.49-2.4,0.88-3.55,1.17c-1.16,0.29-2.25,0.43-3.26,0.43c-1.75,0-3.19-0.3-4.34-0.9
		c-1.15-0.6-2.05-1.4-2.71-2.42c-0.66-1.01-1.13-2.2-1.41-3.55s-0.41-2.79-0.41-4.33c0-1.56,0.18-3.12,0.53-4.7
		c0.35-1.57,0.82-3.12,1.41-4.66s1.25-3.03,1.99-4.5c0.74-1.47,1.49-2.89,2.25-4.27c1.95-3.56,4.17-6.28,6.66-8.16
		c2.49-1.88,5.11-2.82,7.87-2.82c1.41,0,2.81,0.31,4.22,0.94s2.56,1.52,3.48,2.69c0.26,0.31,0.55,0.84,0.88,1.6
		c0.33,0.75,0.64,1.52,0.94,2.3c0.3,0.78,0.57,1.49,0.82,2.14c0.25,0.65,0.42,1.04,0.53,1.17c0.57,0.73,1.24,1.44,1.99,2.12
		c0.75,0.69,1.6,1.31,2.54,1.85s1.95,0.98,3.03,1.31c1.08,0.32,2.22,0.49,3.42,0.49c1.56,0,3.21-0.38,4.94-1.13
		c1.73-0.75,3.31-1.78,4.75-3.08c0.44-0.39,0.83-0.72,1.17-0.99c0.34-0.27,0.68-0.41,1.02-0.41c0.13,0,0.26,0.05,0.39,0.16
		c0.13,0.1,0.25,0.23,0.37,0.37c0.12,0.14,0.21,0.29,0.29,0.45S151.03,127.96,151.03,128.04z M120.4,130.22
		c0-1.04-0.08-1.81-0.23-2.32c-0.16-0.51-0.37-0.92-0.62-1.23c-0.26-0.31-0.56-0.62-0.9-0.94c-0.34-0.31-0.69-0.8-1.05-1.48
		c-0.39-0.73-0.74-1.26-1.04-1.6c-0.3-0.34-0.81-0.51-1.54-0.51c-1.82,0-3.57,0.91-5.23,2.73c-0.83,0.91-1.63,1.94-2.38,3.1
		c-0.76,1.16-1.46,2.44-2.11,3.84c-0.52,1.09-1.03,2.28-1.52,3.56c-0.5,1.29-0.94,2.59-1.33,3.92s-0.71,2.63-0.96,3.92
		c-0.25,1.29-0.37,2.49-0.37,3.6c0,0.47,0.1,0.92,0.31,1.36c0.21,0.44,0.52,0.83,0.94,1.17c0.42,0.34,0.92,0.61,1.5,0.82
		s1.27,0.31,2.05,0.31c0.57,0,1.29-0.17,2.17-0.51c0.87-0.34,1.76-0.75,2.68-1.25c0.91-0.49,1.76-1.02,2.56-1.58
		c0.79-0.56,1.41-1.06,1.86-1.5c1.25-1.33,2.23-2.53,2.93-3.62s1.22-2.2,1.56-3.33c0.34-1.13,0.55-2.36,0.62-3.7
		C120.36,133.66,120.4,132.06,120.4,130.22z"/>
	<path d="M177.04,122.86c0,1.58-0.21,3.36-0.62,5.34c-0.42,1.97-1,4.01-1.76,6.12c-0.76,2.1-1.66,4.2-2.71,6.27
		s-2.23,4.01-3.54,5.81c-1.12,1.56-2.39,2.99-3.81,4.29c-1.42,1.3-2.95,2.42-4.59,3.35c-1.64,0.94-3.37,1.66-5.18,2.18
		c-1.81,0.52-3.67,0.78-5.57,0.78c-0.78,0-1.58-0.31-2.4-0.93s-1.58-1.42-2.27-2.4c-0.69-0.97-1.26-2.07-1.7-3.29
		c-0.44-1.22-0.66-2.42-0.66-3.58c0-1.95,0.18-3.91,0.53-5.88c0.35-1.97,0.98-3.97,1.88-5.98c0.9-2.01,2.1-4.06,3.61-6.14
		c1.51-2.08,3.42-4.21,5.74-6.39c0.47-0.44,1.06-0.9,1.78-1.38c0.72-0.48,1.46-0.94,2.23-1.36c0.77-0.43,1.51-0.81,2.23-1.15
		c0.72-0.34,1.31-0.58,1.78-0.74c1.38-0.49,2.8-0.93,4.26-1.31c1.46-0.38,2.83-0.73,4.1-1.07c-0.31-2.21-0.81-4.15-1.5-5.83
		c-0.69-1.68-1.73-3.18-3.11-4.5c-0.6-0.57-1.31-1.08-2.13-1.52c-0.82-0.44-1.67-0.8-2.56-1.09c-0.89-0.29-1.76-0.5-2.62-0.64
		c-0.86-0.14-1.64-0.23-2.34-0.25c-0.34,0-0.74,0.05-1.21,0.14c-0.47,0.09-0.94,0.21-1.43,0.35c-0.48,0.14-0.95,0.3-1.41,0.47
		c-0.46,0.17-0.84,0.34-1.15,0.53c-0.39,0.23-0.87,0.49-1.43,0.76c-0.56,0.27-1.02,0.41-1.39,0.41c-0.37,0-0.68-0.21-0.94-0.64
		c-0.26-0.43-0.39-0.84-0.39-1.23c0-0.34,0.12-0.73,0.37-1.19c0.25-0.45,0.55-0.9,0.9-1.32c0.35-0.43,0.74-0.82,1.15-1.19
		c0.42-0.36,0.79-0.64,1.13-0.82c0.94-0.49,2.04-0.9,3.3-1.21c1.26-0.31,2.83-0.47,4.71-0.47c1.93,0.05,3.81,0.33,5.64,0.84
		c1.84,0.51,3.54,1.32,5.1,2.46c1.56,1.13,2.94,2.6,4.14,4.4c1.2,1.81,2.13,4.05,2.81,6.72c0.18,0.78,0.34,1.66,0.47,2.65
		c0.13,0.99,0.23,2.02,0.31,3.1c0.08,1.08,0.14,2.18,0.18,3.29C177.02,120.7,177.04,121.79,177.04,122.86z M171.07,122.7
		c0-0.29-0.02-0.56-0.06-0.84s-0.06-0.55-0.06-0.84c-0.62,0.13-1.42,0.31-2.38,0.53c-0.96,0.22-2.01,0.53-3.12,0.94
		c-1.12,0.4-2.29,0.91-3.5,1.52c-1.21,0.61-2.39,1.37-3.54,2.28c-0.16,0.13-0.47,0.44-0.94,0.92c-0.47,0.48-0.99,1.04-1.56,1.68
		c-0.57,0.64-1.13,1.28-1.66,1.93c-0.53,0.65-0.93,1.19-1.19,1.64c-1.02,1.56-1.82,3.01-2.4,4.36c-0.59,1.35-1.04,2.62-1.35,3.8
		c-0.31,1.18-0.51,2.29-0.61,3.33c-0.09,1.04-0.14,2.04-0.14,3c0,1.22,0.12,2.22,0.35,3s0.6,1.17,1.09,1.17
		c0.62,0,1.25-0.03,1.88-0.1c0.62-0.06,1.29-0.22,2.01-0.47c0.72-0.25,1.5-0.63,2.36-1.15s1.84-1.23,2.93-2.14
		c1.74-1.43,3.35-3.15,4.8-5.16c1.46-2.01,2.71-4.14,3.75-6.37c1.04-2.23,1.86-4.48,2.44-6.74
		C170.77,126.71,171.07,124.62,171.07,122.7z"/>
	<path d="M230.79,140.94c0,0.18-0.16,0.5-0.47,0.95c-0.31,0.45-0.64,0.98-0.98,1.58c-1.12,1.27-2.32,2.56-3.59,3.86
		c-1.28,1.3-2.61,2.55-4,3.76c-1.39,1.21-2.84,2.34-4.34,3.39c-1.5,1.05-3.03,1.97-4.59,2.75s-3.13,1.39-4.71,1.83
		c-1.58,0.44-3.14,0.65-4.71,0.62c-2.19,0-4.06-0.35-5.62-1.05s-2.85-1.69-3.87-2.98s-1.76-2.84-2.25-4.68
		c-0.48-1.83-0.72-3.88-0.72-6.14c0-1.87,0.14-3.8,0.41-5.79c0.27-1.99,0.73-3.99,1.37-6c0.64-2.01,1.48-4,2.54-5.96
		c1.05-1.96,2.35-3.85,3.89-5.67c1.48-1.71,3.01-2.97,4.57-3.78s3.09-1.21,4.57-1.21c0.99,0,1.88,0.15,2.68,0.45
		c0.79,0.3,1.47,0.71,2.03,1.23c0.56,0.52,1,1.14,1.31,1.85c0.31,0.71,0.48,1.5,0.51,2.36c0.05,1.22-0.07,2.4-0.37,3.55
		c-0.3,1.14-0.78,2.28-1.43,3.41c-0.65,1.13-1.48,2.29-2.5,3.47c-1.02,1.18-2.21,2.41-3.59,3.68c-0.52,0.49-1.17,1.1-1.95,1.81
		s-1.62,1.46-2.52,2.24s-1.83,1.56-2.79,2.34c-0.96,0.78-1.89,1.48-2.77,2.1c0,1.07,0.14,2.14,0.41,3.21
		c0.27,1.08,0.7,2.05,1.29,2.92s1.35,1.58,2.29,2.14c0.94,0.56,2.08,0.84,3.44,0.84c1.88,0,3.76-0.33,5.66-0.99
		c1.9-0.66,3.79-1.58,5.66-2.75s3.74-2.56,5.59-4.17c1.85-1.61,3.68-3.36,5.51-5.26c0.1-0.1,0.25-0.23,0.43-0.37
		c0.18-0.14,0.39-0.29,0.62-0.43c0.23-0.14,0.47-0.27,0.72-0.37c0.25-0.1,0.49-0.16,0.72-0.16c0.08,0,0.2,0.05,0.37,0.16
		c0.17,0.1,0.34,0.23,0.53,0.37c0.18,0.14,0.34,0.29,0.47,0.45C230.73,140.66,230.79,140.81,230.79,140.94z M209.08,124.3
		c-0.05-0.8-0.26-1.43-0.62-1.87c-0.37-0.44-0.85-0.66-1.45-0.66c-1.04,0-2.23,0.68-3.57,2.05c-1.34,1.36-2.58,3.34-3.73,5.94
		c-0.52,1.2-1.05,2.61-1.6,4.25c-0.55,1.64-0.91,3.36-1.09,5.18c1.35-1.01,2.6-2.08,3.73-3.2c1.13-1.12,2.17-2.14,3.11-3.08
		c0.55-0.55,1.13-1.2,1.76-1.97c0.62-0.77,1.2-1.55,1.74-2.36c0.53-0.8,0.96-1.58,1.29-2.34
		C208.95,125.49,209.1,124.84,209.08,124.3z"/>
	<path d="M333.06,125.39c0,0.55-0.35,1.31-1.04,2.28c-0.69,0.97-1.59,2.05-2.7,3.23c-1.11,1.18-2.35,2.41-3.73,3.68
		c-1.38,1.27-2.74,2.48-4.08,3.62c-1.34,1.14-2.6,2.17-3.79,3.08c-1.19,0.91-2.14,1.58-2.87,2.03c-2.01,1.2-3.8,2.24-5.37,3.14
		c-1.58,0.9-3.15,1.64-4.73,2.22c-1.58,0.58-3.26,1.03-5.04,1.33c-1.78,0.3-3.89,0.45-6.31,0.45c-1.46,0-2.88-0.29-4.28-0.86
		c-1.39-0.57-2.65-1.46-3.77-2.67c-1.12-1.21-2.06-2.76-2.81-4.66c-0.76-1.9-1.21-4.17-1.37-6.82c-0.16,0-0.39,0.08-0.7,0.23
		s-0.65,0.36-1.02,0.6c-0.37,0.25-0.75,0.52-1.15,0.82c-0.4,0.3-0.79,0.59-1.15,0.88c-0.99,0.83-1.96,1.79-2.91,2.88
		c-0.95,1.09-1.81,2.21-2.58,3.37c-0.77,1.16-1.41,2.3-1.91,3.43c-0.51,1.13-0.81,2.14-0.92,3.02c-0.05,0.39-0.21,0.8-0.47,1.23
		c-0.26,0.43-0.55,0.83-0.88,1.21c-0.33,0.38-0.66,0.69-1.02,0.94c-0.35,0.25-0.62,0.37-0.8,0.37c-0.47,0-0.88-0.14-1.23-0.41
		s-0.64-0.61-0.88-1.01s-0.41-0.84-0.53-1.33c-0.12-0.48-0.18-0.92-0.18-1.3c0-0.16,0.07-0.57,0.21-1.23
		c0.14-0.66,0.3-1.39,0.47-2.18c0.17-0.79,0.34-1.56,0.51-2.3c0.17-0.74,0.28-1.27,0.33-1.58c0.16-0.91,0.3-1.86,0.43-2.86
		c0.13-1,0.25-1.96,0.35-2.88c0.1-0.92,0.18-1.77,0.23-2.55c0.05-0.78,0.08-1.42,0.08-1.91c0-0.21-0.02-0.38-0.06-0.51
		c-0.04-0.13-0.12-0.19-0.25-0.19c-0.21,0-0.5,0.14-0.88,0.43c-0.38,0.29-0.67,0.52-0.88,0.7c-2.34,2.03-4.57,4.05-6.68,6.06
		c-2.11,2.01-4.18,4.01-6.21,5.98c-0.73,0.68-1.41,1.39-2.05,2.14c-0.64,0.75-1.27,1.52-1.89,2.3s-1.25,1.56-1.88,2.34
		s-1.28,1.52-1.95,2.22c-0.21,0.23-0.49,0.46-0.84,0.66s-0.71,0.39-1.07,0.54c-0.37,0.16-0.7,0.29-1,0.39
		c-0.3,0.1-0.5,0.16-0.61,0.16c-0.23,0-0.5-0.08-0.78-0.25c-0.29-0.17-0.55-0.38-0.78-0.64c-0.23-0.26-0.43-0.55-0.59-0.88
		c-0.16-0.32-0.23-0.66-0.23-0.99c0-0.36,0.16-0.83,0.49-1.4c0.33-0.57,0.77-1.2,1.35-1.87c0.6-0.75,1.2-1.49,1.82-2.2
		c0.61-0.71,1.2-1.43,1.76-2.14c0.56-0.71,1.1-1.46,1.62-2.22c0.52-0.77,0.98-1.59,1.37-2.47c0.31-0.67,0.61-1.44,0.88-2.3
		c0.27-0.86,0.51-1.72,0.72-2.59c0.21-0.87,0.38-1.71,0.51-2.53c0.13-0.82,0.2-1.54,0.2-2.16c0-1.14-0.17-2.28-0.51-3.41
		c-0.34-1.13-0.83-2.14-1.46-3.02c-0.64-0.88-1.41-1.6-2.32-2.14c-0.91-0.55-1.93-0.82-3.05-0.82c-0.68,0-1.26,0.08-1.76,0.25
		c-0.5,0.17-0.94,0.39-1.35,0.66c-0.4,0.27-0.76,0.57-1.07,0.9c-0.31,0.33-0.6,0.64-0.86,0.95c-0.34,0.42-0.74,0.71-1.21,0.88
		c-0.47,0.17-0.87,0.25-1.21,0.25c-0.16,0-0.44-0.07-0.84-0.21c-0.4-0.14-0.68-0.41-0.84-0.8c-0.16-0.34-0.23-0.77-0.23-1.29
		c0-0.36,0.04-0.74,0.12-1.13s0.2-0.7,0.35-0.94c0.39-0.65,0.91-1.32,1.56-2.03c0.65-0.7,1.42-1.33,2.3-1.89
		c0.88-0.56,1.87-1.02,2.95-1.38c1.08-0.36,2.25-0.55,3.5-0.55c2.03,0,3.76,0.45,5.2,1.36c1.43,0.91,2.6,2.1,3.52,3.56
		c0.91,1.47,1.58,3.12,2.01,4.97c0.43,1.84,0.64,3.7,0.64,5.57c0,0.42-0.02,0.88-0.06,1.4s-0.09,1.05-0.16,1.58
		c-0.07,0.53-0.13,1.04-0.2,1.52c-0.07,0.48-0.14,0.9-0.21,1.27c1.33-1.01,2.73-2.17,4.2-3.47c1.47-1.3,2.89-2.63,4.26-3.99
		s2.62-2.71,3.77-4.05c1.15-1.34,2.07-2.55,2.77-3.64c0.36-0.6,0.63-1.23,0.8-1.89c0.17-0.66,0.4-1.32,0.68-1.97
		c0.26-0.52,0.55-0.94,0.86-1.27s0.81-0.49,1.48-0.49c0.6,0,1.16,0.16,1.68,0.47c0.52,0.31,0.78,0.82,0.78,1.52
		c0,0.44-0.05,1.01-0.16,1.71c-0.1,0.7-0.23,1.42-0.39,2.16s-0.31,1.47-0.47,2.18c-0.16,0.71-0.29,1.31-0.39,1.77
		c-0.18,0.91-0.36,1.81-0.53,2.71c-0.17,0.9-0.33,1.76-0.47,2.59c-0.14,0.83-0.25,1.6-0.33,2.3c-0.08,0.7-0.12,1.29-0.12,1.75
		c0,0.31,0.04,0.58,0.12,0.8c0.08,0.22,0.22,0.46,0.43,0.72c2.5-1.9,4.93-3.83,7.29-5.81c2.36-1.97,4.68-4,6.97-6.08
		c1.02-0.94,1.88-1.75,2.58-2.44c0.7-0.69,1.35-1.31,1.95-1.87c0.6-0.56,1.22-1.08,1.86-1.56c0.64-0.48,1.41-0.95,2.32-1.42
		c0.42-0.21,0.94-0.43,1.56-0.66s1.26-0.44,1.91-0.62c0.65-0.18,1.28-0.33,1.89-0.45c0.61-0.12,1.11-0.18,1.5-0.18
		c1.07,0,1.97,0.4,2.71,1.19c0.74,0.79,1.35,1.7,1.82,2.73c0.47,1.03,0.81,2.03,1.02,3.02c0.21,0.99,0.31,1.68,0.31,2.07
		c0,0.34-0.05,0.71-0.16,1.13c-0.1,0.42-0.25,0.8-0.43,1.15c-0.18,0.35-0.4,0.65-0.66,0.9c-0.26,0.25-0.55,0.37-0.86,0.37
		c-0.6,0-1.06-0.19-1.39-0.57c-0.33-0.38-0.61-0.81-0.84-1.31c-0.08-0.21-0.14-0.5-0.2-0.88c-0.05-0.38-0.12-0.67-0.2-0.88
		c-0.34-0.75-0.78-1.38-1.31-1.87c-0.53-0.49-1.3-0.74-2.29-0.74c-0.7,0-1.48,0.2-2.32,0.6c-0.85,0.4-1.71,0.94-2.58,1.62
		c-0.87,0.68-1.72,1.45-2.54,2.32c-0.82,0.87-1.54,1.76-2.17,2.67s-1.13,1.81-1.52,2.71c-0.39,0.9-0.59,1.71-0.59,2.44
		c0,1.25,0.18,2.51,0.55,3.8c0.36,1.29,0.88,2.45,1.54,3.49c0.66,1.04,1.48,1.88,2.44,2.53c0.96,0.65,2.03,0.97,3.2,0.97
		c1.67,0,3.31-0.2,4.94-0.6c1.63-0.4,3.16-0.9,4.59-1.48c1.43-0.58,2.74-1.21,3.93-1.89c1.18-0.68,2.19-1.27,3.03-1.79
		c1.64-1.04,3.14-2.08,4.51-3.12c1.37-1.04,2.69-2.08,3.96-3.14c1.28-1.05,2.55-2.14,3.83-3.25c1.28-1.12,2.64-2.29,4.1-3.51
		c1.09-0.91,2.04-1.68,2.83-2.3c0.79-0.62,1.26-0.94,1.39-0.94c0.29,0,0.51,0.09,0.66,0.27c0.16,0.18,0.27,0.4,0.35,0.64
		c0.08,0.25,0.13,0.49,0.16,0.72C333.05,125.12,333.06,125.28,333.06,125.39z"/>
	<path d="M345.56,114.4c-0.55-4.31-1.73-7.56-3.54-9.76c-1.81-2.19-4.03-3.29-6.66-3.29c-0.78,0-1.6,0.12-2.44,0.35
		c-0.85,0.23-1.7,0.55-2.56,0.94s-1.71,0.83-2.54,1.31c-0.83,0.48-1.64,0.97-2.42,1.46c-0.7,0.44-1.24,0.71-1.6,0.82
		c-0.37,0.1-0.73,0.16-1.09,0.16c-0.37,0-0.7-0.14-1.02-0.43c-0.31-0.29-0.47-0.74-0.47-1.36c0-0.31,0.08-0.67,0.25-1.07
		c0.17-0.4,0.39-0.81,0.66-1.23s0.59-0.82,0.94-1.21s0.7-0.71,1.04-0.97c1.98-1.48,4.07-2.64,6.27-3.49
		c2.2-0.84,4.28-1.27,6.23-1.27c2.5,0,4.77,0.6,6.8,1.81s3.76,2.92,5.18,5.14c1.42,2.22,2.51,4.91,3.28,8.07
		c0.77,3.16,1.15,6.68,1.15,10.58c0,1.25-0.06,2.58-0.18,4.01c-0.12,1.43-0.27,2.82-0.45,4.19c-0.18,1.36-0.39,2.64-0.62,3.82
		c-0.23,1.18-0.47,2.18-0.7,2.98c-0.76,2.6-1.79,5.05-3.11,7.36c-1.32,2.31-2.84,4.33-4.57,6.06c-1.73,1.73-3.65,3.1-5.76,4.11
		c-2.11,1.01-4.34,1.52-6.68,1.52c-1.72,0-3.26-0.34-4.61-1.03c-1.35-0.69-2.49-1.66-3.42-2.92c-0.92-1.26-1.63-2.78-2.13-4.56
		c-0.5-1.78-0.74-3.76-0.74-5.94c0-1.77,0.27-3.55,0.8-5.36c0.53-1.81,1.31-3.57,2.32-5.3s2.26-3.38,3.73-4.97
		c1.47-1.58,3.16-3.05,5.06-4.38c1.9-1.34,3.98-2.53,6.25-3.58C340.48,115.9,342.93,115.05,345.56,114.4z M332.2,149.31
		c1.04,0,2.16-0.33,3.36-0.99c1.2-0.66,2.37-1.64,3.52-2.92c1.15-1.29,2.23-2.88,3.24-4.77c1.02-1.9,1.86-4.06,2.54-6.51
		c0.18-0.65,0.38-1.57,0.61-2.77c0.22-1.19,0.41-2.49,0.57-3.9s0.26-2.81,0.31-4.21c0.05-1.4-0.01-2.64-0.2-3.7
		c-2.11,0.6-4.3,1.51-6.58,2.73c-2.28,1.22-4.37,2.74-6.27,4.56c-1.9,1.82-3.46,3.92-4.69,6.29c-1.22,2.38-1.84,5.02-1.84,7.93
		c0,2.88,0.46,4.98,1.39,6.29C329.08,148.66,330.43,149.31,332.2,149.31z"/>
	<path d="M408.25,140.74c0,0.6-0.2,1.31-0.61,2.14c-0.4,0.83-1.04,1.83-1.89,3c-0.73,0.99-1.54,1.94-2.42,2.84
		c-0.89,0.91-1.84,1.71-2.85,2.42c-1.02,0.7-2.08,1.26-3.2,1.67c-1.12,0.42-2.28,0.62-3.48,0.62c-1.56,0-2.94-0.34-4.12-1.01
		c-1.19-0.67-2.2-1.6-3.05-2.79c-0.85-1.18-1.52-2.56-2.01-4.13c-0.5-1.57-0.83-3.25-1.02-5.05c-1.15,1.66-2.51,3.31-4.08,4.95
		c-1.58,1.64-3.2,3.11-4.88,4.42s-3.33,2.38-4.96,3.2c-1.63,0.82-3.07,1.23-4.32,1.23c-0.83,0-1.63-0.21-2.4-0.62
		c-0.77-0.42-1.45-0.97-2.03-1.68c-0.59-0.7-1.05-1.51-1.39-2.42c-0.34-0.91-0.51-1.87-0.51-2.88s0.08-2.08,0.25-3.19
		c0.17-1.12,0.46-2.32,0.86-3.6c0.4-1.29,0.92-2.68,1.56-4.19c0.64-1.51,1.43-3.16,2.36-4.95c1.04-2.03,2.28-3.94,3.71-5.75
		c1.43-1.81,2.89-3.39,4.38-4.75s2.9-2.44,4.24-3.23c1.34-0.79,2.43-1.19,3.26-1.19c0.23,0,0.5,0.05,0.8,0.16
		c0.3,0.1,0.61,0.21,0.94,0.33c0.33,0.12,0.64,0.22,0.94,0.31c0.3,0.09,0.55,0.14,0.76,0.14c0.21,0,0.42-0.04,0.62-0.14
		c0.21-0.09,0.42-0.19,0.62-0.31c0.21-0.12,0.42-0.23,0.62-0.33c0.21-0.1,0.42-0.16,0.62-0.16c0.31,0,0.65,0.1,1.02,0.31
		c0.36,0.21,0.72,0.47,1.05,0.8c0.34,0.33,0.64,0.7,0.9,1.11c0.26,0.42,0.44,0.82,0.55,1.21c0.1,0.47,0.24,0.81,0.41,1.03
		c0.17,0.22,0.34,0.42,0.51,0.6c0.17,0.18,0.31,0.4,0.43,0.64c0.12,0.25,0.18,0.63,0.18,1.15c0,0.26-0.09,0.81-0.27,1.64
		c-0.18,0.83-0.38,1.8-0.61,2.9c-0.22,1.1-0.42,2.25-0.61,3.45c-0.18,1.19-0.27,2.29-0.27,3.27c0,2.78,0.15,5.07,0.45,6.86
		c0.3,1.79,0.71,3.21,1.23,4.25c0.52,1.04,1.15,1.77,1.88,2.18c0.73,0.42,1.51,0.62,2.34,0.62c0.7,0,1.42-0.14,2.15-0.41
		c0.73-0.27,1.45-0.64,2.17-1.11c0.72-0.47,1.42-1.01,2.11-1.64c0.69-0.62,1.35-1.27,1.97-1.95c0.86-0.94,1.6-1.69,2.23-2.28
		s1.13-0.88,1.52-0.88c0.36,0,0.68,0.12,0.94,0.35C408.12,140.16,408.25,140.43,408.25,140.74z M384.15,126.17
		c0-1.95-0.29-3.35-0.88-4.21c-0.59-0.86-1.26-1.29-2.01-1.29c-0.65,0-1.31,0.12-1.97,0.37c-0.66,0.25-1.3,0.56-1.89,0.95
		c-0.6,0.39-1.15,0.82-1.64,1.29c-0.5,0.47-0.9,0.92-1.21,1.36c-0.62,0.83-1.28,1.78-1.97,2.84c-0.69,1.07-1.38,2.18-2.07,3.35
		c-0.69,1.17-1.35,2.36-1.97,3.58c-0.62,1.22-1.18,2.41-1.66,3.57c-0.48,1.16-0.87,2.26-1.15,3.31c-0.29,1.05-0.43,1.99-0.43,2.82
		c0,1.22,0.23,2.2,0.7,2.94s1.35,1.11,2.66,1.11c0.44,0,1.09-0.28,1.95-0.84c0.86-0.56,1.78-1.27,2.75-2.12s1.93-1.79,2.87-2.79
		c0.94-1,1.71-1.95,2.3-2.86c0.65-0.96,1.31-2.01,1.97-3.16c0.66-1.14,1.27-2.31,1.82-3.51c0.55-1.19,0.99-2.37,1.33-3.53
		C383.98,128.23,384.15,127.16,384.15,126.17z"/>
</g>
<g>
	<path d="M465.73,194.87c-0.55-4.31-1.73-7.57-3.54-9.76c-1.81-2.19-4.03-3.29-6.66-3.29c-0.78,0-1.6,0.12-2.44,0.35
		c-0.85,0.23-1.7,0.55-2.56,0.94s-1.71,0.82-2.54,1.3c-0.83,0.48-1.64,0.97-2.42,1.46c-0.7,0.44-1.24,0.71-1.6,0.82
		c-0.37,0.1-0.73,0.16-1.09,0.16c-0.37,0-0.7-0.14-1.02-0.43c-0.31-0.29-0.47-0.74-0.47-1.36c0-0.31,0.08-0.67,0.25-1.07
		c0.17-0.4,0.39-0.81,0.66-1.23c0.27-0.42,0.59-0.82,0.94-1.21s0.7-0.71,1.04-0.97c1.98-1.48,4.07-2.64,6.27-3.49
		c2.2-0.84,4.28-1.27,6.23-1.27c2.5,0,4.77,0.6,6.8,1.81s3.76,2.92,5.18,5.14c1.42,2.22,2.51,4.91,3.28,8.07
		c0.77,3.16,1.15,6.68,1.15,10.58c0,1.25-0.06,2.58-0.18,4.01s-0.27,2.83-0.45,4.19c-0.18,1.36-0.39,2.64-0.62,3.82
		c-0.23,1.18-0.47,2.18-0.7,2.98c-0.76,2.6-1.79,5.05-3.11,7.36c-1.32,2.31-2.84,4.33-4.57,6.06c-1.73,1.73-3.65,3.1-5.76,4.11
		c-2.11,1.01-4.34,1.52-6.68,1.52c-1.72,0-3.26-0.34-4.61-1.03c-1.35-0.69-2.49-1.66-3.42-2.92c-0.92-1.26-1.63-2.78-2.13-4.56
		c-0.5-1.78-0.74-3.76-0.74-5.94c0-1.77,0.27-3.55,0.8-5.36c0.53-1.81,1.31-3.57,2.32-5.3c1.02-1.73,2.26-3.38,3.73-4.97
		c1.47-1.58,3.16-3.04,5.06-4.38c1.9-1.34,3.98-2.53,6.25-3.58C460.65,196.37,463.1,195.52,465.73,194.87z M452.37,229.78
		c1.04,0,2.16-0.33,3.36-0.99c1.2-0.66,2.37-1.64,3.52-2.92c1.15-1.29,2.23-2.88,3.24-4.77s1.86-4.07,2.54-6.51
		c0.18-0.65,0.38-1.57,0.61-2.77c0.22-1.2,0.41-2.49,0.57-3.9c0.16-1.4,0.26-2.81,0.31-4.21c0.05-1.4-0.01-2.64-0.2-3.7
		c-2.11,0.6-4.3,1.51-6.58,2.73c-2.28,1.22-4.37,2.74-6.27,4.56c-1.9,1.82-3.46,3.92-4.69,6.29c-1.22,2.38-1.84,5.02-1.84,7.93
		c0,2.88,0.46,4.98,1.39,6.29C449.25,229.12,450.6,229.78,452.37,229.78z"/>
	<path d="M550.46,207.96c0,0.39-0.16,0.88-0.49,1.48c-0.33,0.6-0.74,1.25-1.25,1.95c-0.51,0.7-1.07,1.43-1.7,2.18
		c-0.62,0.75-1.22,1.48-1.8,2.18c-2.03,2.39-4.06,4.58-6.07,6.57c-2.02,1.99-3.98,3.7-5.88,5.12c-1.9,1.43-3.72,2.54-5.45,3.33
		c-1.73,0.79-3.34,1.19-4.82,1.19c-1.85,0-3.33-0.48-4.45-1.44c-1.12-0.96-2.01-2.23-2.66-3.8c-0.65-1.57-1.12-3.35-1.41-5.34
		c-0.29-1.99-0.51-4.01-0.66-6.06c-0.68,1.14-1.43,2.36-2.27,3.64c-0.83,1.29-1.71,2.54-2.62,3.76c-0.91,1.22-1.82,2.37-2.73,3.45
		c-0.91,1.08-1.77,1.98-2.58,2.71c-0.99,0.88-1.97,1.71-2.95,2.47c-0.98,0.77-1.99,1.43-3.05,1.99s-2.17,1-3.36,1.33
		c-1.19,0.33-2.48,0.49-3.89,0.49c-2.06,0-3.67-0.84-4.84-2.53c-1.15-1.69-1.72-3.64-1.72-5.84c0-1.4,0.1-2.81,0.31-4.21
		c0.21-1.4,0.44-2.79,0.68-4.17c0.25-1.38,0.47-2.75,0.68-4.11c0.21-1.36,0.31-2.69,0.31-3.99c0-0.7,0-1.34,0-1.93
		c0-0.58,0.01-1.14,0.04-1.67c0.03-0.53,0.06-1.06,0.12-1.58c0.05-0.52,0.13-1.07,0.23-1.64c0.16-0.88,0.51-1.65,1.05-2.3
		s1.41-0.97,2.58-0.97c2.4,0,3.59,1.65,3.59,4.95c0,0.57-0.06,1.2-0.18,1.89s-0.25,1.4-0.41,2.14s-0.32,1.49-0.49,2.26
		c-0.17,0.77-0.32,1.51-0.45,2.24c-0.52,2.03-0.96,3.96-1.33,5.79c-0.37,1.83-0.55,3.51-0.55,5.05c0,0.39,0.05,0.83,0.16,1.3
		c0.1,0.48,0.26,0.94,0.47,1.36c0.21,0.43,0.49,0.79,0.84,1.07c0.35,0.29,0.76,0.43,1.23,0.43c1.38,0,2.68-0.3,3.89-0.9
		c1.21-0.6,2.34-1.36,3.4-2.28c1.05-0.92,2.04-1.95,2.97-3.08c0.92-1.13,1.82-2.23,2.68-3.29c0.83-1.07,1.71-2.36,2.64-3.88
		c0.92-1.52,1.8-3.1,2.64-4.75c0.83-1.65,1.6-3.3,2.3-4.95s1.26-3.12,1.68-4.42c0.18-0.6,0.43-1.09,0.74-1.48s0.64-0.7,1-0.94
		c0.35-0.23,0.7-0.4,1.04-0.51c0.34-0.1,0.62-0.16,0.86-0.16c0.7,0,1.24,0.11,1.6,0.33c0.36,0.22,0.55,0.67,0.55,1.34
		c0,0.52-0.06,1.22-0.18,2.1c-0.12,0.88-0.25,1.81-0.41,2.77c-0.16,0.96-0.29,1.88-0.41,2.77c-0.12,0.88-0.18,1.57-0.18,2.07
		c0,0.44-0.01,1.05-0.04,1.81c-0.03,0.77-0.04,1.57-0.04,2.4s0.01,1.64,0.04,2.44c0.03,0.79,0.09,1.42,0.2,1.89
		c0.1,0.54,0.24,1.25,0.41,2.1c0.17,0.86,0.4,1.7,0.7,2.51c0.3,0.82,0.69,1.53,1.17,2.12c0.48,0.6,1.1,0.9,1.86,0.9
		c1.41,0,2.99-0.42,4.77-1.25c1.77-0.83,3.62-1.97,5.55-3.41c1.93-1.44,3.91-3.14,5.96-5.1c2.04-1.96,4.04-4.07,6-6.33
		c0.23-0.26,0.47-0.53,0.72-0.82c0.25-0.29,0.49-0.55,0.74-0.78c0.25-0.23,0.49-0.43,0.74-0.58c0.25-0.16,0.47-0.23,0.68-0.23
		c0.29,0,0.61,0.07,0.96,0.21C550.28,207.46,550.46,207.67,550.46,207.96z"/>
	<path d="M593.66,206.95c0,0.47-0.12,1.01-0.37,1.62c-0.25,0.61-0.51,1.12-0.8,1.54c-0.89,1.33-2.06,2.84-3.52,4.54
		c-1.46,1.7-3.04,3.42-4.75,5.14c-1.71,1.73-3.44,3.38-5.2,4.97c-1.76,1.58-3.38,2.91-4.86,3.97c-1.95,1.43-3.81,2.62-5.57,3.58
		s-3.46,1.73-5.1,2.32c-1.64,0.58-3.26,1-4.86,1.25c-1.6,0.25-3.24,0.37-4.9,0.37c-1.75,0-3.31-0.33-4.69-0.99
		c-1.38-0.66-2.55-1.56-3.5-2.71c-0.95-1.14-1.67-2.47-2.17-3.99c-0.5-1.52-0.74-3.12-0.74-4.81c0-1.77,0.22-3.62,0.66-5.57
		c0.44-1.95,1.06-3.91,1.86-5.88c0.79-1.97,1.75-3.9,2.87-5.79c1.12-1.88,2.36-3.64,3.71-5.28c0.55-0.65,1.2-1.34,1.97-2.08
		c0.77-0.74,1.59-1.42,2.46-2.05c0.87-0.62,1.78-1.14,2.73-1.54c0.95-0.4,1.88-0.6,2.79-0.6c0.62,0,1.22,0.19,1.8,0.57
		c0.57,0.38,1.11,0.86,1.6,1.46c0.49,0.6,0.95,1.27,1.37,2.01c0.42,0.74,0.77,1.49,1.05,2.26c0.29,0.77,0.51,1.5,0.66,2.2
		s0.23,1.3,0.23,1.79c0,0.75-0.23,1.73-0.7,2.92c-0.47,1.2-1.03,1.79-1.68,1.79c-0.94,0-1.72-0.64-2.34-1.91
		c-0.23-0.49-0.44-1.06-0.61-1.71c-0.17-0.65-0.37-1.29-0.59-1.91c-0.22-0.62-0.51-1.2-0.88-1.73c-0.37-0.53-0.87-0.93-1.52-1.19
		c-0.65,0.16-1.31,0.49-1.97,1.01s-1.32,1.16-1.95,1.91c-0.64,0.75-1.26,1.6-1.88,2.55c-0.61,0.95-1.19,1.93-1.74,2.94
		c-0.52,0.94-1.03,2.01-1.52,3.21c-0.5,1.21-0.94,2.46-1.33,3.74c-0.39,1.29-0.7,2.57-0.94,3.84s-0.35,2.44-0.35,3.51
		c0,0.75,0.18,1.51,0.55,2.28c0.36,0.77,0.84,1.46,1.43,2.08c0.59,0.62,1.25,1.13,1.99,1.52s1.5,0.58,2.29,0.58
		c2.68,0,5.41-0.56,8.18-1.68c2.77-1.12,5.57-2.65,8.4-4.6c2.83-1.95,5.68-4.24,8.57-6.88s5.78-5.47,8.67-8.51
		c0.88-0.91,1.68-1.71,2.38-2.4s1.37-1.03,1.99-1.03c0.18,0,0.36,0.14,0.53,0.41C593.57,206.27,593.66,206.58,593.66,206.95z"/>
	<path d="M645.81,210.38c0,0.23-0.14,0.61-0.41,1.13c-0.27,0.52-0.64,1.13-1.11,1.83c-0.47,0.7-1.02,1.47-1.64,2.3
		s-1.29,1.69-1.99,2.57c-2.84,3.56-5.5,6.55-7.97,8.98c-2.47,2.43-4.78,4.38-6.91,5.86c-2.14,1.48-4.12,2.55-5.94,3.2
		c-1.82,0.65-3.52,0.97-5.08,0.97c-1.33,0-2.6-0.19-3.83-0.58c-1.22-0.39-2.35-1-3.38-1.83c-1.03-0.83-1.92-1.9-2.68-3.19
		c-0.76-1.3-1.33-2.86-1.72-4.68c-0.23-1.09-0.52-1.99-0.86-2.71c-0.34-0.71-0.69-1.29-1.05-1.71c-0.37-0.43-0.74-0.73-1.11-0.92
		c-0.38-0.18-0.74-0.27-1.07-0.27c-0.76,0-1.48,0.23-2.17,0.7c-0.69,0.47-1.28,1.1-1.78,1.91c-0.21,0.34-0.41,0.88-0.61,1.64
		c-0.2,0.75-0.4,1.62-0.62,2.61c-0.22,0.99-0.46,2.04-0.7,3.16c-0.25,1.12-0.51,2.2-0.8,3.23c-0.23,0.91-0.55,1.61-0.94,2.1
		s-0.8,0.86-1.23,1.09c-0.43,0.23-0.85,0.38-1.27,0.43c-0.42,0.05-0.79,0.08-1.13,0.08c-0.39,0-0.72-0.1-1-0.29
		c-0.27-0.19-0.5-0.44-0.68-0.74c-0.18-0.3-0.32-0.63-0.41-0.99c-0.09-0.36-0.14-0.73-0.14-1.09c0-0.54,0.1-1.17,0.29-1.89
		c0.2-0.71,0.45-1.61,0.76-2.69c0.31-1.08,0.68-2.4,1.09-3.97c0.42-1.57,0.85-3.5,1.29-5.79c0.26-1.38,0.49-2.9,0.7-4.58
		c0.21-1.68,0.38-3.4,0.51-5.18c0.13-1.78,0.23-3.55,0.29-5.32c0.06-1.77,0.1-3.43,0.1-4.99c0-0.49,0.11-0.96,0.33-1.4
		c0.22-0.44,0.5-0.83,0.84-1.17c0.34-0.34,0.7-0.6,1.09-0.8c0.39-0.2,0.75-0.29,1.09-0.29c0.44,0,0.87,0.1,1.29,0.29
		c0.42,0.19,0.78,0.52,1.09,0.97c0.31,0.46,0.57,1.06,0.76,1.81c0.2,0.75,0.29,1.69,0.29,2.8c0,1.4-0.04,2.71-0.12,3.94
		c-0.08,1.22-0.18,2.39-0.31,3.51c-0.13,1.12-0.28,2.22-0.45,3.31c-0.17,1.09-0.36,2.21-0.57,3.35c1.72-0.18,3.29-0.56,4.73-1.13
		c1.43-0.57,2.85-1.35,4.26-2.34c0.96-0.7,1.94-1.54,2.93-2.51c0.99-0.97,1.92-1.99,2.79-3.06c0.87-1.06,1.66-2.12,2.36-3.16
		c0.7-1.04,1.25-1.97,1.64-2.8c0.26-0.52,0.53-1.05,0.82-1.58c0.29-0.53,0.61-1.01,0.96-1.44c0.35-0.43,0.74-0.78,1.17-1.05
		s0.92-0.41,1.46-0.41c0.44,0,0.92,0.08,1.45,0.23c0.52,0.16,1.01,0.38,1.46,0.68c0.46,0.3,0.83,0.65,1.13,1.05
		c0.3,0.4,0.45,0.85,0.45,1.34c0,0.44-0.16,0.98-0.49,1.62c-0.33,0.64-0.84,1.14-1.54,1.5c-0.7,0.36-1.5,1.12-2.4,2.26
		c-0.9,1.14-1.97,2.61-3.22,4.4c-1.09,1.56-2.34,2.98-3.73,4.25c-1.39,1.27-3.18,2.52-5.37,3.74c0.49,0.44,0.91,1.07,1.25,1.89
		c0.34,0.82,0.67,1.71,1,2.67c0.33,0.96,0.68,1.94,1.05,2.92c0.38,0.99,0.83,1.88,1.37,2.69c0.53,0.8,1.19,1.47,1.97,1.99
		s1.74,0.78,2.89,0.78c1.17,0,2.38-0.21,3.61-0.64c1.24-0.43,2.5-1.03,3.79-1.81s2.58-1.71,3.89-2.81c1.3-1.09,2.6-2.3,3.91-3.62
		c0.96-0.99,1.98-2.07,3.05-3.25c1.07-1.18,2.09-2.32,3.07-3.43s1.86-2.12,2.64-3.06c0.78-0.94,1.35-1.64,1.72-2.1
		c0.65-0.88,1.18-1.47,1.6-1.75c0.42-0.29,0.81-0.43,1.17-0.43c0.39,0,0.66,0.19,0.8,0.56
		C645.73,209.64,645.81,210.01,645.81,210.38z"/>
	<path d="M693.78,208.51c0,0.75-0.21,1.51-0.64,2.26c-0.43,0.75-0.98,1.46-1.66,2.1c-0.62,0.6-1.38,1.18-2.27,1.75
		c-0.89,0.57-1.86,1.07-2.91,1.5c-1.05,0.43-2.16,0.77-3.32,1.03c-1.16,0.26-2.34,0.39-3.54,0.39c-1.38,0-2.59-0.14-3.63-0.41
		c-1.04-0.27-1.93-0.57-2.66-0.88c-0.73-0.31-1.31-0.6-1.74-0.88c-0.43-0.27-0.72-0.41-0.88-0.41c-0.34,0-0.56,0.09-0.66,0.27
		c-0.1,0.18-0.17,0.34-0.2,0.47c-0.08,0.62-0.15,1.32-0.21,2.08c-0.07,0.77-0.21,1.58-0.43,2.46c-0.22,0.87-0.55,1.81-1,2.81
		c-0.44,1-1.09,2.04-1.95,3.14c-0.6,0.81-1.35,1.61-2.25,2.42c-0.9,0.81-1.88,1.59-2.95,2.36c-1.07,0.77-2.2,1.49-3.4,2.16
		c-1.2,0.68-2.4,1.26-3.61,1.75c-1.21,0.49-2.4,0.88-3.55,1.17c-1.16,0.29-2.25,0.43-3.26,0.43c-1.75,0-3.19-0.3-4.34-0.9
		c-1.15-0.6-2.05-1.4-2.71-2.42c-0.66-1.01-1.13-2.2-1.41-3.55s-0.41-2.79-0.41-4.33c0-1.56,0.18-3.12,0.53-4.7
		c0.35-1.57,0.82-3.12,1.41-4.66c0.59-1.53,1.25-3.03,1.99-4.5c0.74-1.47,1.49-2.89,2.25-4.27c1.95-3.56,4.17-6.28,6.66-8.16
		c2.49-1.88,5.11-2.83,7.87-2.83c1.41,0,2.81,0.31,4.22,0.93c1.41,0.62,2.56,1.52,3.48,2.69c0.26,0.31,0.55,0.84,0.88,1.6
		c0.33,0.75,0.64,1.52,0.94,2.3c0.3,0.78,0.57,1.49,0.82,2.14c0.25,0.65,0.42,1.04,0.53,1.17c0.57,0.73,1.24,1.44,1.99,2.12
		c0.75,0.69,1.6,1.31,2.54,1.85c0.94,0.54,1.95,0.98,3.03,1.3c1.08,0.33,2.22,0.49,3.42,0.49c1.56,0,3.21-0.38,4.94-1.13
		c1.73-0.75,3.31-1.78,4.75-3.08c0.44-0.39,0.83-0.72,1.17-0.99c0.34-0.27,0.68-0.41,1.02-0.41c0.13,0,0.26,0.05,0.39,0.16
		c0.13,0.1,0.25,0.23,0.37,0.37c0.12,0.14,0.21,0.29,0.29,0.45S693.78,208.43,693.78,208.51z M663.15,210.69
		c0-1.04-0.08-1.81-0.23-2.32c-0.16-0.51-0.37-0.92-0.62-1.23c-0.26-0.31-0.56-0.62-0.9-0.94c-0.34-0.31-0.69-0.8-1.05-1.48
		c-0.39-0.73-0.74-1.26-1.04-1.6c-0.3-0.34-0.81-0.51-1.54-0.51c-1.82,0-3.57,0.91-5.23,2.73c-0.83,0.91-1.63,1.94-2.38,3.1
		c-0.76,1.16-1.46,2.44-2.11,3.84c-0.52,1.09-1.03,2.28-1.52,3.57c-0.5,1.29-0.94,2.59-1.33,3.92s-0.71,2.63-0.96,3.92
		c-0.25,1.29-0.37,2.49-0.37,3.6c0,0.47,0.1,0.92,0.31,1.36c0.21,0.44,0.52,0.83,0.94,1.17c0.42,0.34,0.92,0.61,1.5,0.82
		s1.27,0.31,2.05,0.31c0.57,0,1.29-0.17,2.17-0.51c0.87-0.34,1.76-0.75,2.68-1.25c0.91-0.49,1.76-1.02,2.56-1.58
		c0.79-0.56,1.41-1.06,1.86-1.5c1.25-1.33,2.23-2.53,2.93-3.62s1.22-2.2,1.56-3.33c0.34-1.13,0.55-2.36,0.62-3.7
		S663.15,212.53,663.15,210.69z"/>
	<path d="M714.36,216.45c-0.76,0.49-1.8,0.99-3.14,1.48c-1.34,0.49-2.82,0.95-4.43,1.36c-1.62,0.42-3.29,0.77-5.04,1.05
		c-1.75,0.29-3.4,0.48-4.96,0.58c-0.1,0.29-0.2,0.77-0.27,1.46c-0.08,0.69-0.14,1.49-0.2,2.42c-0.05,0.92-0.1,1.9-0.14,2.94
		c-0.04,1.04-0.07,2.03-0.1,2.98c-0.03,0.95-0.05,1.8-0.06,2.55c-0.01,0.75-0.02,1.3-0.02,1.64c0,0.39-0.11,0.79-0.33,1.19
		c-0.22,0.4-0.5,0.76-0.84,1.07c-0.34,0.31-0.72,0.57-1.13,0.78c-0.42,0.21-0.83,0.31-1.25,0.31c-0.55,0-1.02-0.1-1.41-0.29
		c-0.39-0.19-0.72-0.42-1-0.68c-0.27-0.26-0.48-0.52-0.61-0.78c-0.13-0.26-0.2-0.45-0.2-0.58c-0.05-0.54-0.03-1.27,0.06-2.16
		c0.09-0.9,0.21-1.88,0.37-2.94s0.33-2.19,0.53-3.37c0.2-1.18,0.37-2.34,0.53-3.49c0.18-1.19,0.33-2.53,0.45-3.99
		s0.21-2.98,0.29-4.54s0.14-3.11,0.18-4.66c0.04-1.54,0.06-3.01,0.08-4.38c0.01-1.38,0.02-2.62,0.02-3.72c0-1.1,0-1.99,0-2.67
		c0-1.22,0.26-2.26,0.78-3.12c0.52-0.86,1.39-1.29,2.62-1.29c0.34,0,0.71,0.1,1.11,0.31c0.4,0.21,0.77,0.46,1.11,0.76
		c0.34,0.3,0.62,0.62,0.86,0.97s0.35,0.68,0.35,0.99c0,1.3-0.07,2.66-0.21,4.09c-0.14,1.43-0.31,2.81-0.49,4.15
		c-0.18,1.34-0.35,2.57-0.49,3.7c-0.14,1.13-0.21,2.04-0.21,2.75c0,0.73,0.4,1.26,1.21,1.6c0.81,0.34,1.82,0.51,3.05,0.51
		c0.96,0,2.03-0.08,3.2-0.25s2.3-0.4,3.4-0.68s2.1-0.64,3.03-1.05c0.92-0.42,1.65-0.88,2.17-1.4c0.44-0.44,0.85-1,1.23-1.68
		c0.38-0.67,0.64-1.36,0.8-2.06c0.21-0.86,0.38-1.84,0.51-2.96c0.13-1.12,0.3-2.25,0.51-3.39c0.29-1.74,0.87-3.13,1.74-4.17
		c0.87-1.04,1.89-1.56,3.07-1.56c1.02,0,1.8,0.33,2.34,0.97c0.55,0.65,0.82,1.42,0.82,2.3c0,0.29-0.11,0.84-0.33,1.66
		c-0.22,0.82-0.5,1.75-0.82,2.79c-0.33,1.04-0.66,2.09-1.02,3.16s-0.66,1.97-0.92,2.73c-0.18,0.54-0.38,1.34-0.59,2.4
		c-0.21,1.05-0.4,2.2-0.57,3.43c-0.17,1.23-0.31,2.46-0.43,3.68c-0.12,1.22-0.18,2.26-0.18,3.12c0,2.65,0.32,4.53,0.96,5.65
		c0.64,1.12,1.61,1.67,2.91,1.67c0.94,0,1.96-0.18,3.07-0.54c1.11-0.36,2.34-0.98,3.71-1.85c1.37-0.87,2.88-2.02,4.55-3.45
		c1.67-1.43,3.55-3.19,5.66-5.3c1.02-1.01,2-2.04,2.97-3.08c0.96-1.04,1.87-2.03,2.71-2.96c0.85-0.94,1.61-1.8,2.29-2.59
		c0.68-0.79,1.24-1.45,1.68-1.97c0.29-0.34,0.61-0.69,0.96-1.05c0.35-0.36,0.68-0.55,1-0.55c0.44,0,0.83,0.07,1.15,0.21
		c0.33,0.14,0.49,0.47,0.49,0.99c0,0.55-0.29,1.27-0.86,2.18c-0.57,0.91-1.28,1.94-2.11,3.08c-0.26,0.36-0.68,0.9-1.25,1.6
		c-0.57,0.7-1.24,1.51-2.01,2.42c-0.77,0.91-1.61,1.88-2.52,2.9c-0.91,1.03-1.83,2.03-2.75,3.02c-0.92,0.99-1.82,1.93-2.7,2.83
		c-0.87,0.9-1.67,1.67-2.4,2.32c-2.63,2.34-5.23,4.21-7.79,5.61c-2.57,1.4-5.18,2.1-7.83,2.1c-2.34,0-4.18-0.91-5.51-2.73
		s-1.99-4.43-1.99-7.83c0-0.73,0.02-1.49,0.06-2.3c0.04-0.8,0.08-1.59,0.14-2.36c0.05-0.77,0.11-1.5,0.18-2.2
		C714.21,217.58,714.28,216.97,714.36,216.45z"/>
	<path d="M828.35,221.48c0,0.44-0.2,1-0.59,1.67c-0.39,0.68-0.94,1.42-1.64,2.22c-1.25,1.43-2.58,2.87-3.98,4.32
		c-1.41,1.46-2.86,2.77-4.36,3.94c-1.5,1.17-3.01,2.12-4.55,2.84c-1.54,0.73-3.06,1.09-4.57,1.09c-2.29,0-4.06-0.78-5.29-2.34
		c-1.24-1.56-2.04-3.96-2.4-7.21c-0.13-1.07-0.22-2.25-0.27-3.55c-0.05-1.3-0.1-2.6-0.14-3.9s-0.08-2.56-0.14-3.78
		c-0.05-1.22-0.13-2.31-0.23-3.25c-0.1-0.95-0.25-1.71-0.45-2.28s-0.45-0.86-0.76-0.86c-0.55,0-1.13,0.26-1.74,0.78
		c-0.61,0.52-1.3,1.33-2.05,2.44c-0.76,1.1-1.6,2.51-2.52,4.23c-0.92,1.71-1.97,3.77-3.14,6.16c-0.94,1.92-1.74,3.47-2.4,4.64
		s-1.27,2.08-1.82,2.73c-0.55,0.65-1.07,1.08-1.56,1.29c-0.5,0.21-1.04,0.31-1.64,0.31c-0.44,0-0.89-0.09-1.33-0.27
		c-0.44-0.18-0.85-0.42-1.23-0.72c-0.38-0.3-0.72-0.64-1.02-1.03c-0.3-0.39-0.53-0.79-0.68-1.21c-0.29-0.86-0.53-2.02-0.72-3.49
		c-0.2-1.47-0.4-3.2-0.61-5.2c-0.21-1.84-0.39-3.41-0.55-4.7s-0.33-2.38-0.53-3.29c-0.2-0.91-0.42-1.67-0.66-2.3
		c-0.25-0.62-0.57-1.19-0.96-1.71c-0.91,0.05-2.25,1.13-4.02,3.23c-1.8,2.13-3.38,4.25-4.75,6.37s-2.68,4.23-3.93,6.33
		c-0.37,0.62-0.78,1.34-1.25,2.14c-0.47,0.81-0.94,1.62-1.43,2.44c-0.48,0.82-0.95,1.59-1.41,2.32c-0.46,0.73-0.85,1.32-1.19,1.79
		c-0.18,0.29-0.5,0.53-0.96,0.72c-0.46,0.2-0.94,0.36-1.45,0.51c-0.51,0.14-1.01,0.25-1.5,0.31c-0.5,0.07-0.87,0.1-1.13,0.1
		c-0.42,0-0.78-0.21-1.07-0.64c-0.3-0.43-0.54-1.03-0.72-1.79c-0.18-0.77-0.32-1.68-0.41-2.75c-0.09-1.06-0.14-2.23-0.14-3.51
		c0-1.19,0.08-2.56,0.23-4.09c0.16-1.53,0.34-3.1,0.57-4.71c0.22-1.61,0.46-3.2,0.72-4.77c0.26-1.57,0.49-2.98,0.7-4.23
		c0.29-1.71,0.51-3.18,0.66-4.4s0.23-2.23,0.23-3.04c0-0.62,0.18-1.15,0.55-1.58c0.36-0.43,0.87-0.64,1.52-0.64
		c2.6,0,3.91,1.78,3.91,5.34c0,0.86-0.07,1.82-0.2,2.88c-0.13,1.07-0.29,2.19-0.49,3.37c-0.2,1.18-0.4,2.39-0.62,3.62
		c-0.22,1.23-0.44,2.45-0.66,3.64c-0.22,1.19-0.41,2.35-0.57,3.47s-0.26,2.13-0.31,3.04c0.7-0.68,1.59-1.74,2.66-3.2
		c1.07-1.45,2.32-3.33,3.75-5.61c1.46-2.29,2.82-4.31,4.08-6.06c1.26-1.75,2.44-3.25,3.54-4.5c2.19-2.47,4.54-3.7,7.07-3.7
		c0.62,0,1.17,0.15,1.64,0.45c0.47,0.3,0.88,0.71,1.23,1.25s0.64,1.14,0.88,1.83c0.23,0.69,0.43,1.42,0.59,2.2
		c0.31,1.48,0.59,3.22,0.82,5.22c0.23,2,0.44,3.94,0.62,5.81c0.18,1.82,0.44,3.18,0.78,4.07c0.34,0.9,0.59,1.34,0.74,1.34
		c0.29,0,0.62-0.21,1.02-0.62c0.39-0.42,0.79-0.96,1.21-1.64c0.42-0.67,0.85-1.42,1.29-2.24c0.44-0.82,0.86-1.62,1.25-2.42
		c0.39-0.79,0.75-1.53,1.07-2.22c0.33-0.69,0.59-1.23,0.8-1.62c0.91-1.79,1.79-3.31,2.64-4.56c0.85-1.25,1.69-2.25,2.54-3.02
		c0.85-0.77,1.71-1.32,2.58-1.67c0.87-0.35,1.79-0.53,2.75-0.53c0.91,0,1.68,0.18,2.3,0.53s1.15,0.84,1.58,1.46s0.77,1.37,1.02,2.24
		c0.25,0.87,0.45,1.83,0.61,2.86c0.1,0.7,0.18,1.66,0.21,2.86s0.08,2.5,0.12,3.88c0.04,1.38,0.08,2.76,0.12,4.15s0.11,2.6,0.21,3.64
		c0.23,2.36,0.71,4.19,1.43,5.47c0.72,1.29,1.82,1.93,3.3,1.93c0.78,0,1.67-0.26,2.68-0.78c1-0.52,2.08-1.25,3.22-2.18
		c1.15-0.94,2.36-2.05,3.65-3.33c1.29-1.29,2.62-2.68,4-4.19c0.49-0.54,0.98-0.98,1.46-1.3c0.48-0.33,0.9-0.49,1.27-0.49
		c0.21,0,0.41,0.19,0.61,0.56C828.25,220.79,828.35,221.14,828.35,221.48z"/>
</g>
<ellipse class="st4" cx="671.03" cy="53" rx="29.54" ry="29.46"/>
<g>
</g>
<g>
</g>
<g>
</g>
<g>
</g>
<g>
</g>
<g>
</g>
</svg>
